<svg xmlns="http://www.w3.org/2000/svg" viewBox="0 0 33 34">
    <path d="M29.7732 16.4171C27.6483 18.373 25.1612 20.0875 24.6058 20.667C24.6058 20.667 21.6598 18.8077 20.5008 16.6103C20.5008 16.6103 22.9879 14.3888 23.1328 12.119C23.2294 10.5736 26.127 7.14469 28.9039 5.8649C25.9097 2.33944 21.4425 0.11792 16.4441 0.11792C7.36483 0.11792 0 7.48275 0 16.562C0 18.1557 0.24147 19.7011 0.651969 21.1741C1.08661 20.5463 1.52126 19.9667 1.78688 19.5321C1.78688 19.5321 4.27402 22.3573 6.95433 22.961C6.95433 22.961 5.81942 26.1001 3.98425 27.3074C7.00262 30.8087 11.4698 33.0303 16.4441 33.0303C25.5234 33.0303 32.8882 25.6654 32.8882 16.5862C32.8882 15.2822 32.7192 14.0024 32.4294 12.7709C31.6567 14.2922 30.5942 15.6444 29.7732 16.4171ZM11.7354 17.9867C9.51391 18.5662 7.82362 21.4156 7.82362 21.4156C5.43307 20.6911 3.06667 18.1799 3.06667 18.1799C3.52546 17.5279 4.73281 14.751 6.22992 12.288C7.72703 9.84915 12.7738 5.26123 15.937 7.60348C19.1003 9.9216 13.957 17.4072 11.7354 17.9867ZM16.1543 24.5064C12.9428 21.4156 19.1727 17.7211 19.1727 17.7211C20.2835 20.2324 23.5192 22.14 23.5192 22.14C22.022 23.4681 19.3659 27.5972 16.1543 24.5064Z" fill="#000000">
    </path>
</svg>
