
<svg version="1.0" xmlns="http://www.w3.org/2000/svg"
 width="400.000000pt" height="400.000000pt" viewBox="0 0 400.000000 400.000000"
 preserveAspectRatio="xMidYMid meet">

<g transform="translate(0.000000,400.000000) sjcale(0.100000,-0.100000)"
fill="#000000" stroke="none">
<path d="M0 2000 l0 -2000 2000 0 2000 0 0 2000 0 2000 -2000 0 -2000 0 0
-2000z m2195 1498 c125 -25 287 -100 393 -181 141 -109 264 -275 322 -434 60
-168 60 -161 60 -1229 l0 -974 -965 0 -966 0 3 1017 3 1018 23 80 c117 405
447 678 867 719 55 5 200 -3 260 -16z"/>
<path d="M1815 3444 c-289 -62 -543 -276 -658 -554 -65 -158 -61 -87 -65
-1172 l-3 -988 278 0 278 0 53 46 c64 56 86 55 90 -4 l3 -42 90 0 89 0 1 33
c1 17 0 42 0 53 -2 15 15 35 56 67 31 25 58 45 60 44 1 -2 -5 -26 -13 -55
l-15 -52 38 -45 38 -44 393 -1 393 0 -3 988 -3 987 -28 88 c-15 48 -43 119
-61 157 -124 250 -353 429 -626 491 -104 23 -283 24 -385 3z m251 -393 c19
-12 37 -35 48 -65 21 -54 15 -70 -12 -36 -10 13 -34 28 -53 34 -34 11 -48 39
-35 72 7 18 15 18 52 -5z m-71 -23 c-8 -35 -20 -48 -46 -48 -26 0 -43 -50 -45
-135 -2 -44 -6 -95 -10 -113 -9 -43 -52 -74 -92 -66 l-30 6 34 33 c19 18 34
40 34 48 0 8 7 20 15 27 10 8 15 31 15 69 0 103 55 211 108 211 21 0 23 -3 17
-32z m75 -84 c0 -7 3 -19 6 -28 4 -11 0 -16 -14 -16 -11 0 -27 -7 -36 -15 -19
-19 -19 -85 0 -85 10 0 11 6 4 26 -14 35 -13 44 6 44 8 0 12 5 9 10 -10 16 4
12 25 -8 19 -17 19 -23 7 -83 -7 -35 -16 -62 -20 -59 -3 3 -12 -4 -20 -14 -8
-10 -19 -16 -24 -13 -17 11 -23 -20 -7 -34 11 -9 21 -9 37 -1 74 35 84 25 46
-51 -70 -137 -106 -183 -201 -253 -49 -36 -92 -63 -95 -61 -2 3 -7 42 -10 88
l-6 82 28 -7 27 -7 -28 29 c-33 34 -38 29 -48 -42 -8 -62 -39 -115 -113 -191
-45 -47 -72 -66 -118 -83 -34 -12 -80 -38 -103 -57 -31 -27 -56 -38 -97 -45
-30 -5 -62 -13 -72 -18 -17 -10 -63 4 -63 19 0 4 15 19 33 33 l32 26 -33 -11
c-18 -6 -35 -9 -38 -6 -7 7 62 38 100 44 28 4 34 2 39 -16 5 -22 50 -30 62
-11 3 6 -1 10 -10 10 -10 0 -30 11 -46 24 -15 13 -34 26 -41 29 -7 2 -10 7 -7
11 3 3 30 -1 59 -8 54 -14 55 -14 90 14 56 45 166 163 174 187 4 11 18 28 31
37 14 9 47 47 73 85 50 72 100 121 123 121 7 0 20 7 30 16 10 9 33 23 51 32
37 19 37 22 18 139 -16 92 -10 113 37 138 35 18 41 19 71 6 17 -9 32 -21 32
-27z m75 -96 c5 -33 15 -61 29 -74 37 -37 96 -104 96 -109 0 -2 -15 -2 -32 2
-37 6 -68 29 -68 49 0 8 -12 21 -26 30 -18 12 -24 25 -23 43 2 14 -1 36 -5 49
-8 24 0 62 14 62 4 0 11 -24 15 -52z m33 -190 c21 -21 13 -54 -39 -157 -108
-218 -313 -427 -395 -407 -49 13 -71 114 -38 179 22 42 45 68 55 61 16 -10 9
-42 -16 -72 -24 -29 -36 -90 -15 -77 6 3 10 16 10 28 0 17 17 34 63 64 135 89
195 150 271 275 39 65 76 118 82 118 5 0 15 -5 22 -12z m-406 -34 c-18 -14
-50 -52 -72 -84 -56 -83 -67 -84 -27 -3 37 72 59 98 92 106 39 9 40 7 7 -19z
m495 16 c22 -8 40 -30 73 -88 23 -42 64 -110 91 -149 27 -40 45 -73 40 -73
-12 0 -93 96 -157 185 -107 148 -106 145 -47 125z m-52 -57 c-18 -73 -104
-253 -165 -346 -73 -111 -199 -253 -255 -287 -22 -13 -47 -20 -67 -18 -30 3
-35 8 -50 53 -18 53 -24 165 -9 165 5 0 12 -13 16 -29 8 -39 41 -71 71 -71 69
0 202 115 292 253 50 76 152 275 152 296 0 6 5 11 11 11 7 0 9 -10 4 -27z m36
-20 c0 -10 2 -25 3 -33 2 -8 6 -85 10 -170 4 -85 14 -229 22 -320 14 -142 15
-209 5 -475 -12 -333 -19 -415 -32 -415 -4 0 -16 -16 -25 -35 -29 -61 -281
-249 -347 -259 -18 -3 -59 -7 -93 -10 l-60 -5 3 62 c2 34 8 98 13 141 6 44 10
116 10 160 0 45 5 120 11 166 6 47 11 140 13 207 l2 122 40 43 c65 71 178 278
161 295 -3 2 -24 -31 -47 -74 -53 -99 -113 -179 -153 -204 -41 -25 -99 -20
-134 13 -50 46 -93 161 -108 288 -8 63 7 85 62 96 l30 6 7 -90 c10 -138 36
-192 90 -192 55 0 154 93 278 260 84 112 145 235 211 423 4 9 11 17 17 17 5 0
10 -8 11 -17z m70 -110 c17 -27 49 -66 71 -89 38 -40 38 -41 23 -70 -10 -19
-15 -57 -15 -114 0 -62 -8 -114 -29 -193 -16 -60 -32 -111 -35 -114 -9 -9 -14
33 -31 232 -21 249 -29 395 -22 395 3 0 20 -21 38 -47z m222 -234 c65 -67 82
-80 100 -74 12 4 38 9 57 11 31 4 33 3 16 -8 -10 -7 -31 -23 -46 -35 -15 -13
-39 -23 -53 -23 -28 0 -178 66 -190 83 -15 23 10 127 31 127 4 0 43 -36 85
-81z m273 -134 c19 -14 18 -15 -6 -35 -27 -21 -47 -25 -68 -11 -11 7 -9 14 10
34 28 30 38 32 64 12z m-94 -7 c-9 -9 -15 -9 -24 0 -9 9 -7 12 12 12 19 0 21
-3 12 -12z m-272 -273 c0 -151 4 -275 9 -275 5 0 10 119 13 265 2 145 7 267
10 271 13 12 63 -13 75 -37 6 -13 17 -88 24 -167 11 -118 11 -161 -1 -250 -7
-59 -15 -208 -17 -332 -3 -124 -9 -229 -14 -235 -6 -6 -15 -3 -25 7 -13 12
-14 20 -5 36 16 30 14 36 -19 70 -28 30 -30 37 -30 107 0 43 -4 75 -10 75 -6
0 -10 -38 -10 -93 0 -52 -3 -96 -6 -100 -11 -11 -80 30 -109 64 -20 25 -26 40
-22 63 3 17 9 50 12 73 5 28 3 54 -6 75 -19 46 -17 129 4 161 9 15 17 40 17
56 0 17 8 46 17 66 14 30 15 42 5 80 -11 40 -9 54 24 162 20 65 38 121 41 126
19 30 23 -20 23 -268z m-188 -777 c-1 -40 -3 -86 -5 -103 l-2 -30 -22 36 c-13
20 -23 51 -23 69 0 31 34 100 48 100 4 0 6 -33 4 -72z m-44 -123 c18 -25 32
-52 32 -60 0 -20 -51 -78 -61 -68 -12 12 -24 173 -12 173 5 0 24 -20 41 -45z
m52 -156 c0 -5 -9 -9 -20 -9 -19 0 -27 20 -13 33 7 8 33 -11 33 -24z"/>
<path d="M1940 2878 c0 -4 12 -8 27 -8 14 0 23 3 19 7 -10 10 -46 11 -46 1z"/>
<path d="M1830 2400 c8 -5 20 -10 25 -10 6 0 3 5 -5 10 -8 5 -19 10 -25 10 -5
0 -3 -5 5 -10z"/>
<path d="M1295 2110 c-3 -5 -2 -10 4 -10 5 0 13 5 16 10 3 6 2 10 -4 10 -5 0
-13 -4 -16 -10z"/>
<path d="M2157 2263 c-3 -5 -22 -119 -42 -253 -43 -290 -64 -400 -112 -579
-64 -244 -113 -369 -181 -459 -40 -53 -7 -36 37 19 143 179 195 381 291 1113
20 145 21 182 7 159z"/>
</g>
</svg>
